<svg width="16" height="16" viewBox="0 0 16 16" fill="none" xmlns="http://www.w3.org/2000/svg">
<path d="M9.32788 8.992H11.0079L11.6639 6.336H9.32788V4.992C9.32788 4.69333 9.34388 4.48 9.37587 4.352C9.42921 4.128 9.54654 3.96266 9.72788 3.856C9.94121 3.728 10.2559 3.664 10.6719 3.664H11.6639V1.424C11.5359 1.40266 11.3012 1.38133 10.9599 1.36C10.5439 1.33866 10.1439 1.328 9.75988 1.328C9.15188 1.328 8.61588 1.45066 8.15188 1.696C7.68788 1.94133 7.32788 2.29333 7.07188 2.752C6.80521 3.232 6.67188 3.80266 6.67188 4.464V6.336H4.67188V8.992H6.67188V14.672H9.32788V8.992Z" fill="#1877F2"/>
</svg>
