<svg width="24" height="24" viewBox="0 0 24 24" fill="none" xmlns="http://www.w3.org/2000/svg">
<path fill-rule="evenodd" clip-rule="evenodd" d="M21 1.6875C22.0969 1.6875 22.9938 2.54378 23.0587 3.62436L23.0625 3.75V21.75C23.0625 22.0607 22.8107 22.3125 22.5 22.3125C22.2152 22.3125 21.9799 22.1009 21.9426 21.8263L21.9375 21.75V3.75C21.9375 3.26459 21.5686 2.86535 21.0959 2.81734L21 2.8125H3C2.51459 2.8125 2.11535 3.18141 2.06734 3.65415L2.0625 3.75V21.75C2.0625 22.0607 1.81066 22.3125 1.5 22.3125C1.21523 22.3125 0.979882 22.1009 0.942635 21.8263L0.9375 21.75V3.75C0.9375 2.6531 1.79378 1.7562 2.87436 1.69126L3 1.6875H21ZM13.5 20.4375C13.8107 20.4375 14.0625 20.6893 14.0625 21C14.0625 21.2848 13.8509 21.5201 13.5763 21.5574L13.5 21.5625H10.5C10.1893 21.5625 9.9375 21.3107 9.9375 21C9.9375 20.7152 10.1491 20.4799 10.4237 20.4426L10.5 20.4375H13.5ZM19.5 16.6875C19.8107 16.6875 20.0625 16.9393 20.0625 17.25C20.0625 17.5348 19.8509 17.7701 19.5763 17.8074L19.5 17.8125H4.5C4.18934 17.8125 3.9375 17.5607 3.9375 17.25C3.9375 16.9652 4.14912 16.7299 4.42367 16.6926L4.5 16.6875H19.5ZM19.5 12.9375C19.8107 12.9375 20.0625 13.1893 20.0625 13.5C20.0625 13.7848 19.8509 14.0201 19.5763 14.0574L19.5 14.0625H4.5C4.18934 14.0625 3.9375 13.8107 3.9375 13.5C3.9375 13.2152 4.14912 12.9799 4.42367 12.9426L4.5 12.9375H19.5ZM19.5 9.1875C19.8107 9.1875 20.0625 9.43934 20.0625 9.75C20.0625 10.0348 19.8509 10.2701 19.5763 10.3074L19.5 10.3125H4.5C4.18934 10.3125 3.9375 10.0607 3.9375 9.75C3.9375 9.46523 4.14912 9.22988 4.42367 9.19263L4.5 9.1875H19.5ZM19.5 5.4375C19.8107 5.4375 20.0625 5.68934 20.0625 6C20.0625 6.28477 19.8509 6.52012 19.5763 6.55737L19.5 6.5625H4.5C4.18934 6.5625 3.9375 6.31066 3.9375 6C3.9375 5.71523 4.14912 5.47988 4.42367 5.44263L4.5 5.4375H19.5Z" fill="#314350"/>
</svg>
