<svg width="16" height="16" viewBox="0 0 16 16" fill="none" xmlns="http://www.w3.org/2000/svg">
<path d="M8.91286 1.392C7.82486 1.24266 6.76886 1.35466 5.74486 1.728C4.75286 2.09066 3.88886 2.656 3.15286 3.424C2.4062 4.21333 1.88353 5.136 1.58486 6.192C1.2862 7.248 1.2542 8.30933 1.48886 9.376C1.7022 10.4107 2.13953 11.344 2.80086 12.176C3.48353 13.0293 4.3262 13.6747 5.32886 14.112C5.29686 13.5787 5.3342 13.0667 5.44086 12.576L6.30486 8.944C6.15553 8.58133 6.0862 8.22933 6.09686 7.888C6.09686 7.39733 6.21953 6.98666 6.46486 6.656C6.7102 6.32533 7.0142 6.16 7.37686 6.16C7.64353 6.16 7.86753 6.26133 8.04886 6.464C8.2302 6.66666 8.30486 6.90133 8.27286 7.168C8.27286 7.33866 8.24086 7.55733 8.17686 7.824C8.1342 7.99466 8.0542 8.256 7.93686 8.608C7.81953 9.01333 7.7342 9.31733 7.68086 9.52C7.6382 9.68 7.63553 9.84 7.67286 10C7.7102 10.16 7.7822 10.304 7.88886 10.432C7.99553 10.56 8.12086 10.6587 8.26486 10.728C8.40886 10.7973 8.5662 10.8267 8.73686 10.816C9.1422 10.816 9.5102 10.6507 9.84087 10.32C10.1609 10.0107 10.4089 9.58666 10.5849 9.048C10.7609 8.50933 10.8489 7.92 10.8489 7.28C10.8489 6.77866 10.7422 6.336 10.5289 5.952C10.3155 5.568 10.0062 5.264 9.60086 5.04C9.1742 4.816 8.66753 4.704 8.08086 4.704C7.64353 4.68266 7.22486 4.752 6.82486 4.912C6.42486 5.072 6.0702 5.304 5.76086 5.608C5.45153 5.912 5.21153 6.264 5.04086 6.664C4.8702 7.064 4.7902 7.47733 4.80086 7.904C4.77953 8.40533 4.92353 8.84266 5.23286 9.216C5.2862 9.25866 5.32353 9.31466 5.34486 9.384C5.3662 9.45333 5.3662 9.52 5.34486 9.584L5.20086 10.112C5.1902 10.176 5.1502 10.2293 5.08086 10.272C5.01153 10.3147 4.93953 10.32 4.86486 10.288C4.41686 10.1067 4.07553 9.776 3.84086 9.296C3.61686 8.85866 3.50486 8.336 3.50486 7.728C3.50486 7.06666 3.68086 6.42666 4.03286 5.808C4.41686 5.14666 4.94486 4.61866 5.61686 4.224C6.38486 3.78666 7.2702 3.568 8.27286 3.568C9.08353 3.568 9.81953 3.75466 10.4809 4.128C11.0995 4.46933 11.5875 4.93333 11.9449 5.52C12.3022 6.10666 12.4809 6.73066 12.4809 7.392C12.4809 8.256 12.3315 9.03733 12.0329 9.736C11.7342 10.4347 11.3129 10.976 10.7689 11.36C10.2142 11.7653 9.58486 11.968 8.88086 11.968C8.56086 11.9787 8.2542 11.9093 7.96086 11.76C7.66753 11.6107 7.4302 11.4027 7.24886 11.136L6.78486 12.96C6.6462 13.44 6.4222 13.9147 6.11286 14.384C6.72086 14.576 7.35553 14.672 8.01686 14.672C8.89153 14.672 9.73687 14.504 10.5529 14.168C11.3689 13.832 12.0915 13.3493 12.7209 12.72C13.3502 12.0907 13.8329 11.3653 14.1689 10.544C14.5049 9.72266 14.6729 8.87466 14.6729 8C14.6729 6.90133 14.4169 5.872 13.9049 4.912C13.4142 3.97333 12.7369 3.19466 11.8729 2.576C10.9875 1.936 10.0009 1.54133 8.91286 1.392Z" fill="#BD081C"/>
</svg>
