<svg width="16" height="16" viewBox="0 0 16 16" fill="none" xmlns="http://www.w3.org/2000/svg">
<path d="M14.8168 3.77603C14.3048 4.00003 13.7661 4.14403 13.2008 4.20803C13.4995 4.03736 13.7528 3.81869 13.9608 3.55203C14.1688 3.28536 14.3261 2.99203 14.4328 2.67203C13.8995 2.99203 13.3075 3.21603 12.6568 3.34403C12.4008 3.06669 12.0941 2.85069 11.7368 2.69603C11.3795 2.54136 11.0088 2.46403 10.6248 2.46403C10.1235 2.46403 9.65946 2.58936 9.2328 2.84003C8.80613 3.09069 8.46746 3.42936 8.2168 3.85603C7.96613 4.28269 7.8408 4.74669 7.8408 5.24803C7.8408 5.44003 7.86746 5.65336 7.9208 5.88803C6.77946 5.83469 5.70213 5.54669 4.6888 5.02403C3.70746 4.51203 2.8648 3.82936 2.1608 2.97603C1.91546 3.40269 1.7928 3.86669 1.7928 4.36803C1.7928 4.84803 1.9048 5.29069 2.1288 5.69603C2.3528 6.10136 2.65146 6.43203 3.0248 6.68803C2.6088 6.68803 2.18746 6.57603 1.7608 6.35203V6.38403C1.7608 6.82136 1.8568 7.23469 2.0488 7.62403C2.2408 8.01336 2.50746 8.33869 2.8488 8.60003C3.19013 8.86136 3.57413 9.03469 4.0008 9.12003C3.76613 9.18403 3.5208 9.21603 3.2648 9.21603C3.09413 9.21603 2.91813 9.20003 2.7368 9.16803C2.91813 9.72269 3.2488 10.1814 3.7288 10.544C4.2088 10.9067 4.74746 11.0934 5.3448 11.104C4.85413 11.488 4.3128 11.7814 3.7208 11.984C3.1288 12.1867 2.51813 12.288 1.8888 12.288C1.73946 12.288 1.51546 12.2774 1.2168 12.256C1.8568 12.6614 2.53946 12.9707 3.2648 13.184C3.99013 13.3974 4.73146 13.504 5.4888 13.504C6.72613 13.504 7.86213 13.264 8.8968 12.784C9.84613 12.3467 10.6728 11.728 11.3768 10.928C12.0381 10.1814 12.5501 9.32803 12.9128 8.36803C13.2541 7.44003 13.4248 6.50669 13.4248 5.56803V5.21603C13.9688 4.81069 14.4328 4.33069 14.8168 3.77603Z" fill="black"/>
</svg>
