<svg width="16" height="16" viewBox="0 0 16 16" fill="none" xmlns="http://www.w3.org/2000/svg">
<path d="M8.00013 1.328C9.20546 1.328 10.3255 1.632 11.3601 2.24C12.3735 2.82666 13.1735 3.62666 13.7601 4.64C14.3681 5.67466 14.6721 6.79466 14.6721 8C14.6721 9.20533 14.3681 10.3253 13.7601 11.36C13.1735 12.3733 12.3735 13.1733 11.3601 13.76C10.3255 14.368 9.20546 14.672 8.00013 14.672C7.40279 14.672 6.82146 14.592 6.25613 14.432C5.69079 14.272 5.15746 14.048 4.65613 13.76L1.34413 14.672L2.24013 11.36C1.63213 10.3147 1.32812 9.192 1.32812 7.992C1.32812 6.792 1.63213 5.67466 2.24013 4.64C2.82679 3.62666 3.62679 2.82666 4.64013 2.24C5.67479 1.632 6.79479 1.328 8.00013 1.328ZM5.60013 4.864C5.48279 4.88533 5.40013 4.90666 5.35213 4.928C5.30413 4.94933 5.23746 5.00266 5.15213 5.088C5.09879 5.14133 5.04013 5.21066 4.97613 5.296C4.72013 5.648 4.59746 6.02133 4.60813 6.416C4.60813 6.71466 4.67746 7.02933 4.81613 7.36C5.10413 7.98933 5.54146 8.59733 6.12813 9.184C6.32013 9.376 6.46413 9.51466 6.56013 9.6C7.30679 10.2613 8.16013 10.7147 9.12013 10.96L9.50413 11.024C9.67479 11.024 9.79746 11.0187 9.87213 11.008C10.0321 11.008 10.2188 10.96 10.4321 10.864L10.6881 10.72L10.7681 10.656C10.8321 10.6133 10.9015 10.5493 10.9761 10.464C11.0508 10.3787 11.1041 10.3093 11.1361 10.256C11.1788 10.16 11.2215 10 11.2641 9.776C11.2748 9.70133 11.2748 9.632 11.2641 9.568V9.52C11.2641 9.488 11.2508 9.456 11.2241 9.424C11.1975 9.392 11.1681 9.36533 11.1361 9.344L9.82413 8.752C9.79213 8.74133 9.75213 8.73333 9.70413 8.728C9.65613 8.72266 9.60813 8.728 9.56013 8.744C9.51213 8.76 9.47213 8.784 9.44013 8.816L9.36013 8.912C9.26413 9.01866 9.11479 9.19466 8.91213 9.44C8.88013 9.504 8.81613 9.536 8.72013 9.536L8.64013 9.504C8.59746 9.49333 8.56546 9.48266 8.54413 9.472L8.38413 9.408C7.98946 9.22666 7.63746 9.00266 7.32813 8.736C7.27479 8.69333 7.19479 8.61866 7.08813 8.512C6.82146 8.256 6.59213 7.97333 6.40013 7.664C6.40013 7.64266 6.38946 7.62133 6.36813 7.6C6.32546 7.536 6.30146 7.48533 6.29613 7.448C6.29079 7.41066 6.29346 7.37066 6.30413 7.328L6.33613 7.28L6.57613 7.008L6.75213 6.768C6.82679 6.64 6.84813 6.51733 6.81613 6.4L6.24013 5.04C6.18679 4.95466 6.09613 4.90133 5.96813 4.88L5.85613 4.864H5.60013Z" fill="#25D366"/>
</svg>
